<svg width="145" height="50" viewBox="0 0 145 50" fill="none" xmlns="http://www.w3.org/2000/svg">
<path d="M26.4648 13.3347C23.6894 10.5592 19.9251 9 16 9C12.075 9 8.31067 10.5592 5.53524 13.3346L4.33465 14.5352C1.55922 17.3107 0 21.0749 0 25C0 28.925 1.55922 32.6893 4.33464 35.4648L5.53525 36.6654C8.31067 39.4408 12.075 41 16 41C19.9251 41 23.6893 39.4408 26.4648 36.6653L27.6654 35.4648C30.4408 32.6893 32 28.925 32 25C32 21.0749 30.4408 17.3106 27.6653 14.5352L26.4648 13.3347ZM11.5663 31.2843C8.07424 27.7923 8.07423 22.1306 11.5663 18.6386C13.9566 16.2482 17.8892 16.2482 20.2795 18.6386C23.7716 22.1306 23.7716 27.7923 20.2795 31.2843C17.8892 33.6747 14.0337 33.6747 11.5663 31.2843Z" fill="#4828FD"/>
<path d="M57.25 37.45C55.6333 37.45 54.1083 37.15 52.675 36.55C51.2583 35.9333 50.0083 35.0917 48.925 34.025C47.8583 32.9583 47.0167 31.7167 46.4 30.3C45.8 28.8833 45.5 27.3667 45.5 25.75C45.5 24.1333 45.8 22.6167 46.4 21.2C47.0167 19.7833 47.8583 18.5417 48.925 17.475C50.0083 16.4083 51.2583 15.575 52.675 14.975C54.1083 14.3583 55.6333 14.05 57.25 14.05C58.8833 14.05 60.4083 14.3583 61.825 14.975C63.2417 15.575 64.4833 16.4083 65.55 17.475C66.6333 18.5417 67.475 19.7833 68.075 21.2C68.6917 22.6167 69 24.1333 69 25.75C69 27.3667 68.6917 28.8833 68.075 30.3C67.475 31.7167 66.6333 32.9583 65.55 34.025C64.4833 35.0917 63.2417 35.9333 61.825 36.55C60.4083 37.15 58.8833 37.45 57.25 37.45ZM57.25 34.75C58.9 34.75 60.3917 34.35 61.725 33.55C63.0583 32.7333 64.1083 31.6417 64.875 30.275C65.6583 28.9083 66.05 27.4 66.05 25.75C66.05 24.0833 65.6583 22.575 64.875 21.225C64.1083 19.8583 63.0583 18.775 61.725 17.975C60.3917 17.1583 58.9 16.75 57.25 16.75C55.6 16.75 54.1083 17.1583 52.775 17.975C51.4583 18.775 50.4083 19.8583 49.625 21.225C48.8417 22.575 48.45 24.0833 48.45 25.75C48.45 27.4 48.8417 28.9083 49.625 30.275C50.4083 31.6417 51.4583 32.7333 52.775 33.55C54.1083 34.35 55.6 34.75 57.25 34.75ZM72.1878 44.5V22H74.6878V23.975C75.3711 23.2917 76.1628 22.7583 77.0628 22.375C77.9628 21.9917 78.9295 21.8 79.9628 21.8C81.3461 21.8 82.5961 22.15 83.7128 22.85C84.8461 23.5333 85.7461 24.4583 86.4128 25.625C87.0961 26.7917 87.4378 28.0833 87.4378 29.5C87.4378 30.9167 87.0961 32.2083 86.4128 33.375C85.7461 34.5417 84.8461 35.475 83.7128 36.175C82.5961 36.8583 81.3461 37.2 79.9628 37.2C78.9795 37.2 78.0545 37.025 77.1878 36.675C76.3211 36.325 75.5545 35.8417 74.8878 35.225V44.5H72.1878ZM79.6128 34.75C80.5628 34.75 81.4211 34.5167 82.1878 34.05C82.9711 33.5667 83.5878 32.9333 84.0378 32.15C84.5045 31.35 84.7378 30.4667 84.7378 29.5C84.7378 28.5333 84.5045 27.6583 84.0378 26.875C83.5878 26.075 82.9711 25.4417 82.1878 24.975C81.4211 24.4917 80.5628 24.25 79.6128 24.25C78.6628 24.25 77.7961 24.4917 77.0128 24.975C76.2461 25.4417 75.6295 26.075 75.1628 26.875C74.7128 27.6583 74.4878 28.5333 74.4878 29.5C74.4878 30.4667 74.7128 31.35 75.1628 32.15C75.6295 32.9333 76.2461 33.5667 77.0128 34.05C77.7961 34.5167 78.6628 34.75 79.6128 34.75ZM91.4639 37V24.25H88.0639V22H91.5389V17H94.0889V22H97.8139V24.25H94.1639V37H91.4639ZM105.969 37.3C104.919 37.3 103.936 37.0417 103.019 36.525C102.102 35.9917 101.361 35.225 100.794 34.225C100.227 33.225 99.9439 32.025 99.9439 30.625V22H102.644V30.25C102.644 31.4333 102.994 32.4833 103.694 33.4C104.411 34.3 105.411 34.75 106.694 34.75C107.744 34.75 108.677 34.375 109.494 33.625C110.327 32.8583 110.744 31.7583 110.744 30.325V22H113.444V37H110.944V34.575C110.394 35.4583 109.677 36.1333 108.794 36.6C107.927 37.0667 106.986 37.3 105.969 37.3ZM117.524 37V22H120.024V24.75C120.557 23.8667 121.266 23.1667 122.149 22.65C123.032 22.1167 124.082 21.85 125.299 21.85L125.974 24.55C125.657 24.45 125.291 24.4 124.874 24.4C123.474 24.4 122.349 24.85 121.499 25.75C120.649 26.6333 120.224 27.9 120.224 29.55V37H117.524ZM133.987 37.2C132.62 37.2 131.37 36.8583 130.237 36.175C129.103 35.475 128.195 34.5417 127.512 33.375C126.845 32.2083 126.512 30.9167 126.512 29.5C126.512 28.0833 126.845 26.7917 127.512 25.625C128.195 24.4583 129.103 23.5333 130.237 22.85C131.37 22.15 132.62 21.8 133.987 21.8C135.02 21.8 135.987 21.9917 136.887 22.375C137.803 22.7583 138.595 23.2917 139.262 23.975V22H141.762V37H139.262V35.025C138.595 35.6917 137.803 36.225 136.887 36.625C135.987 37.0083 135.02 37.2 133.987 37.2ZM134.337 34.75C135.287 34.75 136.145 34.5167 136.912 34.05C137.695 33.5667 138.312 32.9333 138.762 32.15C139.228 31.35 139.462 30.4667 139.462 29.5C139.462 28.5333 139.228 27.6583 138.762 26.875C138.312 26.075 137.695 25.4417 136.912 24.975C136.145 24.4917 135.287 24.25 134.337 24.25C133.387 24.25 132.52 24.4917 131.737 24.975C130.97 25.4417 130.353 26.075 129.887 26.875C129.437 27.6583 129.212 28.5333 129.212 29.5C129.212 30.4667 129.437 31.35 129.887 32.15C130.353 32.9333 130.97 33.5667 131.737 34.05C132.52 34.5167 133.387 34.75 134.337 34.75Z" fill="#d5eaf5"/>
</svg>